<svg class="logo-color-var" xmlns="http://www.w3.org/2000/svg" width="17.935" height="17.963" viewBox="0 0 17.935 17.963">
  <g id="chat-audio-svgrepo-com" transform="translate(0.75 0.75)">
    <path id="Path_36" data-name="Path 36" d="M15.783,3a3.77,3.77,0,0,1,3.652,3.878v6.787a3.77,3.77,0,0,1-3.652,3.878h-2.13L11.327,19.4a.174.174,0,0,1-.219,0L8.783,17.544H6.652A3.77,3.77,0,0,1,3,13.666V6.878A3.77,3.77,0,0,1,6.652,3Z" transform="translate(-3 -3)" fill="none" stroke="var(--navbar-color-var)" stroke-linecap="round" stroke-width="1.5"/>
    <path id="Path_37" data-name="Path 37" d="M11,7.913a.913.913,0,0,1,1.826,0V14.3A.913.913,0,0,1,11,14.3Z" transform="translate(-3.696 -3.348)" fill="#457fc4"/>
    <path id="Path_38" data-name="Path 38" d="M7.913,8A.913.913,0,0,0,7,8.913v4.565a.913.913,0,0,0,1.826,0V8.913A.913.913,0,0,0,7.913,8Z" transform="translate(-3.348 -3.435)" fill="#457fc4"/>
    <path id="Path_39" data-name="Path 39" d="M15.913,8A.913.913,0,0,0,15,8.913v4.565a.913.913,0,0,0,1.826,0V8.913A.913.913,0,0,0,15.913,8Z" transform="translate(-4.043 -3.435)" fill="#457fc4"/>
  </g>
</svg>
