<svg xmlns="http://www.w3.org/2000/svg" width="115.612" height="70.6" viewBox="0 0 115.612 70.6">
  <g id="Group_3739" data-name="Group 3739" transform="translate(-1265.038 -5736.964)">
    <path id="Path_31923" data-name="Path 31923" d="M-16.279,3.5h7.665L-6.57-9.563H2.482L.511,3.5H8.1L10.147-9.563h9.49l.073-8.4H11.461L12.848-27.3h8.76l.073-8.249H14.162l1.9-12.337H8.468L6.5-35.551H-2.555L-.584-47.888H-8.249l-1.9,12.337h-9.417V-27.3h8.1l-1.46,9.344h-8.541v8.4h7.3ZM-5.256-17.958-3.8-27.3H5.256L3.8-17.958Z" transform="translate(1286.5 5788.564)" fill="#faa819"/>
    <path id="Path_31920" data-name="Path 31920" d="M12.55-35.4v-.2A18.052,18.052,0,0,0,21.05-51c0-11.9-10-18.6-22.5-18.6-10.3,0-18.6,5.4-21.6,12.9l12.9,6.8c1.7-3.2,4.1-5.2,8.3-5.2a6.778,6.778,0,0,1,7.1,6.9c0,3.7-2.2,6.6-7.1,6.6h-5.7v12.9h4.5c6.3,0,9.5,3.5,9.5,7.7,0,4.9-3.9,7.5-8.1,7.5-5.3,0-8.4-2.5-10-7.1l-14.1,5.8C-22.35-5.8-13.05,1-.55,1c13.7,0,23.7-7.7,23.7-19.8C23.15-26.7,18.95-32.3,12.55-35.4Z" transform="translate(1357.5 5806.564)" fill="#fff"/>
  </g>
</svg>
