<svg xmlns="http://www.w3.org/2000/svg" width="115.112" height="69.6" viewBox="0 0 115.112 69.6">
  <g id="Group_3740" data-name="Group 3740" transform="translate(-794.038 -5736.964)">
    <path id="Path_31924" data-name="Path 31924" d="M-16.279,3.5h7.665L-6.57-9.563H2.482L.511,3.5H8.1L10.147-9.563h9.49l.073-8.4H11.461L12.848-27.3h8.76l.073-8.249H14.162l1.9-12.337H8.468L6.5-35.551H-2.555L-.584-47.888H-8.249l-1.9,12.337h-9.417V-27.3h8.1l-1.46,9.344h-8.541v8.4h7.3ZM-5.256-17.958-3.8-27.3H5.256L3.8-17.958Z" transform="translate(815.5 5788.564)" fill="#faa819"/>
    <path id="Path_31921" data-name="Path 31921" d="M.15-14.6v-.2l10.7-11.1c9.1-9.5,11.1-15.4,11.1-23.2,0-12.8-10.4-20.5-22.2-20.5s-19.3,5.9-23.4,13l11.5,8.3c3-4.4,6.5-6.4,10.6-6.4a7.1,7.1,0,0,1,7.2,7.4c0,4.9-3.1,9.2-8.5,14.9l-20.3,21.9.2,10.5h45.6V-14.6Z" transform="translate(886.5 5806.564)" fill="#fff"/>
  </g>
</svg>
