<svg xmlns="http://www.w3.org/2000/svg" xmlns:xlink="http://www.w3.org/1999/xlink" width="17.726" height="17.727" viewBox="0 0 17.726 17.727">
  <defs>
    <clipPath id="clip-path">
      <rect id="Rectangle_1543" data-name="Rectangle 1543" width="17.726" height="17.727" transform="translate(0 0)" fill="none"/>
    </clipPath>
  </defs>
  <g id="Group_529" data-name="Group 529" transform="translate(0 0)">
    <g id="Group_528" data-name="Group 528" clip-path="url(#clip-path)">
      <path id="Path_243" data-name="Path 243" d="M.516,15.926,15.926.516A.908.908,0,0,1,17.21,1.8L1.8,17.21A.908.908,0,0,1,.516,15.926"/>
      <path id="Path_244" data-name="Path 244" d="M.516,15.926,15.926.516A.908.908,0,0,1,17.21,1.8L1.8,17.21A.908.908,0,0,1,.516,15.926Z" fill="none" stroke="#000" stroke-linecap="round" stroke-linejoin="round" stroke-width="0.5"/>
      <path id="Path_245" data-name="Path 245" d="M.516.517h0A.907.907,0,0,1,1.8.517l15.41,15.41a.908.908,0,0,1-1.284,1.284L.516,1.8a.907.907,0,0,1,0-1.284"/>
      <path id="Path_246" data-name="Path 246" d="M.516.517h0A.907.907,0,0,1,1.8.517l15.41,15.41a.908.908,0,0,1-1.284,1.284L.516,1.8A.907.907,0,0,1,.516.517Z" fill="none" stroke="#000" stroke-linecap="round" stroke-linejoin="round" stroke-width="0.5"/>
    </g>
  </g>
</svg>
