<svg xmlns="http://www.w3.org/2000/svg" width="40.559" height="22.32" viewBox="0 0 40.559 22.32">
  <g id="Group_3702" data-name="Group 3702" transform="translate(-4174.18 -4572.12)">
    <path id="Path_31909" data-name="Path 31909" d="M-6.69,1.44h3.15l.84-5.37H1.02L.21,1.44H3.33l.84-5.37h3.9L8.1-7.38H4.71l.57-3.84h3.6l.03-3.39H5.82l.78-5.07H3.48l-.81,5.07H-1.05l.81-5.07H-3.39l-.78,5.07H-8.04v3.39h3.33l-.6,3.84H-8.82v3.45h3Zm4.53-8.82.6-3.84H2.16l-.6,3.84Z" transform="translate(4183 4593)" fill="#faa819"/>
    <path id="Path_31900" data-name="Path 31900" d="M.045-4.38v-.06l3.21-3.33c2.73-2.85,3.33-4.62,3.33-6.96,0-3.84-3.12-6.15-6.66-6.15a7.712,7.712,0,0,0-7.02,3.9l3.45,2.49a3.76,3.76,0,0,1,3.18-1.92A2.129,2.129,0,0,1,1.7-14.19c0,1.47-.93,2.76-2.55,4.47l-6.09,6.57L-6.885,0H6.8V-4.38Z" transform="translate(4207.944 4593)" fill="#fff"/>
  </g>
</svg>
