<svg id="logo-grandem" xmlns="http://www.w3.org/2000/svg" width="285.76" height="69.619" viewBox="0 0 285.76 69.619" class="logo-color-var">
  <path id="Path_31911" data-name="Path 31911" d="M18.984,5.026A18.979,18.979,0,1,0,37.968,24,19,19,0,0,0,18.984,5.026Zm0,31.642A12.658,12.658,0,1,1,31.642,24.01,12.675,12.675,0,0,1,18.984,36.668Z" transform="translate(0 5.547)" fill="var(--navbar-color-var)"/>
  <path id="Path_31912" data-name="Path 31912" d="M18.758,1.718a4.22,4.22,0,1,0,4.22,4.22A4.22,4.22,0,0,0,18.758,1.718Z" transform="translate(16.046 1.896)" fill="var(--navbar-color-var)"/>
  <path id="Path_31913" data-name="Path 31913" d="M18.984,36.727A12.675,12.675,0,0,1,6.326,24.069H0a18.984,18.984,0,0,0,37.968,0H31.644A12.675,12.675,0,0,1,18.986,36.727Z" transform="translate(0 26.566)" fill="var(--navbar-color-var)"/>
  <path id="Path_31914" data-name="Path 31914" d="M108.961,5.021a18.985,18.985,0,1,0,17.686,26.347h-7.218a12.614,12.614,0,0,1-22.5-4.22h30.536a18.975,18.975,0,0,0,.269-3.143,19.433,19.433,0,0,0-.269-3.181,18.785,18.785,0,0,0-18.5-15.8ZM96.715,21.87c.067-.356.135-.711.221-1.058a12.371,12.371,0,0,1,24.05,0c.086.345.164.7.221,1.058H96.717Z" transform="translate(99.544 5.542)" fill="var(--navbar-color-var)"/>
  <path id="Path_31915" data-name="Path 31915" d="M61,9.524a17.279,17.279,0,0,0-11.812-4.5,18.984,18.984,0,0,0,0,37.968A17.278,17.278,0,0,0,61,38.5v3.431H67.32V6.055H61V9.524ZM49.184,36.658A12.658,12.658,0,1,1,61.834,24,12.675,12.675,0,0,1,49.184,36.658Z" transform="translate(33.333 5.547)" fill="var(--navbar-color-var)"/>
  <path id="Path_31916" data-name="Path 31916" d="M100.407,15.071a17.278,17.278,0,0,0-11.812-4.5,18.984,18.984,0,0,0,0,37.968,17.294,17.294,0,0,0,11.812-4.5v3.431h6.324V0h-6.324ZM88.6,42.2a12.658,12.658,0,1,1,12.65-12.658A12.675,12.675,0,0,1,88.6,42.2Z" transform="translate(76.832)" fill="var(--navbar-color-var)"/>
  <path id="Path_31917" data-name="Path 31917" d="M28.173,9.534V6.065H21.849v35.86h6.324V20.846a9.511,9.511,0,0,1,9.5-9.5V5.026a11.246,11.246,0,0,0-9.5,4.508Z" transform="translate(24.115 5.547)" fill="var(--navbar-color-var)"/>
  <path id="Path_31918" data-name="Path 31918" d="M68.588,5.027A14.119,14.119,0,0,0,58.044,9.554v-3.5H51.72v35.86h6.324V20.836a9.491,9.491,0,1,1,18.982,0V41.915H83.36V20.836c0-8.718-6.046-15.82-14.764-15.82l-.011.011Z" transform="translate(57.085 5.536)" fill="var(--navbar-color-var)"/>
  <path id="Path_31919" data-name="Path 31919" d="M149.8,5.021a13.137,13.137,0,0,0-11.6,6.671,13.147,13.147,0,0,0-11.6-6.671,11.577,11.577,0,0,0-9.5,4.489V6.06h-6.324V41.92H117.1V19.785a8.434,8.434,0,1,1,16.868,0V41.92H140.3V19.785h0a8.438,8.438,0,0,1,16.876,0V41.92H163.5V19.785c0-8.141-5.564-14.764-13.706-14.764h0Z" transform="translate(122.262 5.542)" fill="var(--navbar-color-var)"/>
</svg>
