<svg id="logo-grandem" xmlns="http://www.w3.org/2000/svg" width="200.457" height="48.837" viewBox="0 0 200.457 48.837" class="logo-color-var">
  <path id="Path_31911" data-name="Path 31911" d="M13.317,5.026a13.313,13.313,0,1,0,13.317,13.31A13.326,13.326,0,0,0,13.317,5.026Zm0,22.2a8.88,8.88,0,1,1,8.88-8.88A8.891,8.891,0,0,1,13.317,27.223Z" transform="translate(0 2.391)" fill="var(--navbar-color-var)"/>
  <path id="Path_31912" data-name="Path 31912" d="M17.5,1.718a2.96,2.96,0,1,0,2.96,2.96A2.96,2.96,0,0,0,17.5,1.718Z" transform="translate(6.916 0.817)" fill="var(--navbar-color-var)"/>
  <path id="Path_31913" data-name="Path 31913" d="M13.317,32.949a8.891,8.891,0,0,1-8.88-8.88H0a13.317,13.317,0,0,0,26.634,0H22.2a8.891,8.891,0,0,1-8.88,8.88Z" transform="translate(0 11.451)" fill="var(--navbar-color-var)"/>
  <path id="Path_31914" data-name="Path 31914" d="M103.357,5.021A13.317,13.317,0,1,0,115.764,23.5H110.7a8.849,8.849,0,0,1-15.785-2.96h21.42a13.311,13.311,0,0,0,.189-2.2,13.633,13.633,0,0,0-.189-2.231A13.177,13.177,0,0,0,103.357,5.022ZM94.767,16.84c.047-.249.094-.5.155-.742a8.678,8.678,0,0,1,16.871,0c.061.242.115.493.155.742H94.768Z" transform="translate(42.906 2.389)" fill="var(--navbar-color-var)"/>
  <path id="Path_31915" data-name="Path 31915" d="M51.8,8.181a12.121,12.121,0,0,0-8.286-3.155,13.317,13.317,0,0,0,0,26.634A12.121,12.121,0,0,0,51.8,28.505v2.407h4.436V5.748H51.8V8.181ZM43.517,27.215a8.88,8.88,0,1,1,8.874-8.88A8.891,8.891,0,0,1,43.517,27.215Z" transform="translate(14.367 2.391)" fill="var(--navbar-color-var)"/>
  <path id="Path_31916" data-name="Path 31916" d="M91.214,10.572a12.121,12.121,0,0,0-8.286-3.155,13.317,13.317,0,0,0,0,26.634A12.132,12.132,0,0,0,91.214,30.9V33.3H95.65V0H91.214ZM82.928,29.606a8.88,8.88,0,1,1,8.874-8.88A8.891,8.891,0,0,1,82.928,29.606Z" transform="translate(33.117)" fill="var(--navbar-color-var)"/>
  <path id="Path_31917" data-name="Path 31917" d="M26.285,8.189V5.755H21.849V30.91h4.436V16.124a6.672,6.672,0,0,1,6.661-6.661V5.026a7.889,7.889,0,0,0-6.661,3.163Z" transform="translate(10.394 2.391)" fill="var(--navbar-color-var)"/>
  <path id="Path_31918" data-name="Path 31918" d="M63.552,5.023a9.9,9.9,0,0,0-7.4,3.176V5.745H51.72V30.9h4.436V16.114a6.658,6.658,0,1,1,13.316,0V30.9h4.443V16.114c0-6.115-4.241-11.1-10.357-11.1l-.007.007Z" transform="translate(24.605 2.386)" fill="var(--navbar-color-var)"/>
  <path id="Path_31919" data-name="Path 31919" d="M138.147,5.021a9.215,9.215,0,0,0-8.139,4.68,9.222,9.222,0,0,0-8.139-4.68,8.121,8.121,0,0,0-6.661,3.149V5.75h-4.436V30.905h4.436V15.378a5.916,5.916,0,1,1,11.832,0V30.905h4.443V15.378h0a5.919,5.919,0,0,1,11.838,0V30.905h4.436V15.378c0-5.711-3.9-10.357-9.614-10.357h0Z" transform="translate(52.699 2.389)" fill="var(--navbar-color-var)"/>
</svg>
