<svg xmlns="http://www.w3.org/2000/svg" width="48.9" height="70.6" viewBox="0 0 48.9 70.6">
  <path id="Path_31920" data-name="Path 31920" d="M12.55-35.4v-.2A18.052,18.052,0,0,0,21.05-51c0-11.9-10-18.6-22.5-18.6-10.3,0-18.6,5.4-21.6,12.9l12.9,6.8c1.7-3.2,4.1-5.2,8.3-5.2a6.778,6.778,0,0,1,7.1,6.9c0,3.7-2.2,6.6-7.1,6.6h-5.7v12.9h4.5c6.3,0,9.5,3.5,9.5,7.7,0,4.9-3.9,7.5-8.1,7.5-5.3,0-8.4-2.5-10-7.1l-14.1,5.8C-22.35-5.8-13.05,1-.55,1c13.7,0,23.7-7.7,23.7-19.8C23.15-26.7,18.95-32.3,12.55-35.4Z" transform="translate(25.75 69.6)" fill="#fff"/>
</svg>
