<svg xmlns="http://www.w3.org/2000/svg" width="18.855" height="17.404" viewBox="0 0 18.855 17.404">
  <path id="phone_6_" data-name="phone (6)" d="M17.022,9.252l-5.574-.4-1.2,2.131a3.418,3.418,0,0,1-.637-.207,4.772,4.772,0,0,1-.754-.375A5.663,5.663,0,0,1,7.574,9.276,4.177,4.177,0,0,1,7.109,8.6a3.58,3.58,0,0,1-.316-.659l1.965-1.46L7.664,1,.867,0,.624.757A12.742,12.742,0,0,0,18.147,16.206l.72-.336L17.8,12.042ZM15.669,15.13A10.876,10.876,0,0,1,2,3.083c.049-.332.114-.665.195-.99l3.888.573.6,3.02L4.644,7.2l.134.594a6.977,6.977,0,0,0,5.782,5.161l.083.01.608.058,1.25-2.218,3.069.22,1.058,3.787C16.312,14.933,15.991,15.039,15.669,15.13Z" transform="translate(-0.011)"/>
</svg>
