<svg xmlns="http://www.w3.org/2000/svg" width="35.979" height="22.05" viewBox="0 0 35.979 22.05">
  <g id="Group_3701" data-name="Group 3701" transform="translate(-4057.18 -4572.39)">
    <path id="Path_31910" data-name="Path 31910" d="M-6.69,1.44h3.15l.84-5.37H1.02L.21,1.44H3.33l.84-5.37h3.9L8.1-7.38H4.71l.57-3.84h3.6l.03-3.39H5.82l.78-5.07H3.48l-.81,5.07H-1.05l.81-5.07H-3.39l-.78,5.07H-8.04v3.39h3.33l-.6,3.84H-8.82v3.45h3Zm4.53-8.82.6-3.84H2.16l-.6,3.84Z" transform="translate(4066 4593)" fill="#faa819"/>
    <path id="Path_31899" data-name="Path 31899" d="M-.675,0h4.89V-20.61H.315l-6.45,4.56,2.31,3.63,3.15-2.34Z" transform="translate(4088.944 4593)" fill="#fff"/>
  </g>
</svg>
