<svg xmlns="http://www.w3.org/2000/svg" width="115.818" height="126.521" viewBox="0 0 115.818 126.521">
  <g id="Group_3736" data-name="Group 3736" transform="translate(-1340.045 -199.479)">
    <path id="Union_2" data-name="Union 2" d="M55.343,125.075l-5.6-9.257H20a20,20,0,0,1-20-20V20A20,20,0,0,1,20,0H95.819a20,20,0,0,1,20,20V95.819a20,20,0,0,1-20,20H66.078l-5.6,9.257a3,3,0,0,1-5.133,0Z" transform="translate(1340.045 199.479)" fill="#126395" opacity="0.7"/>
    <g id="solar-panel_525987" transform="translate(1362.939 218.603)">
      <g id="Group_91" data-name="Group 91" transform="translate(0 11.568)">
        <g id="Group_90" data-name="Group 90" transform="translate(0)">
          <path id="Path_23" data-name="Path 23" d="M70,141.379l-7.386-33.63a1.368,1.368,0,0,0-1.336-1.074H58.044a23.252,23.252,0,0,0-46.447,0H8.753a1.368,1.368,0,0,0-1.336,1.074L.031,141.379a1.368,1.368,0,0,0,1.336,1.661H68.662A1.368,1.368,0,0,0,70,141.379ZM34.82,87.314A20.542,20.542,0,0,1,55.3,106.674H14.337A20.542,20.542,0,0,1,34.82,87.314Zm8.772,33.295.638,8.48H25.8l.638-8.48Zm-16.949-2.736.637-8.463H42.749l.637,8.463ZM22.211,140.3H3.068l1.862-8.48H22.85Zm.844-11.216H5.532l1.863-8.48h16.3Zm.844-11.216H7.995l1.859-8.463H24.537ZM24.955,140.3l.638-8.48H44.437l.638,8.48ZM45.493,109.41H60.176l1.859,8.463H46.13Zm.843,11.2h16.3l1.863,8.48H46.974Zm1.483,19.7-.638-8.48H65.1l1.863,8.48Z" transform="translate(0 -84.578)" fill="#fff"/>
        </g>
      </g>
      <g id="Group_93" data-name="Group 93" transform="translate(33.648)">
        <g id="Group_92" data-name="Group 92">
          <path id="Path_24" data-name="Path 24" d="M247.368,0A1.368,1.368,0,0,0,246,1.368V8.3a1.368,1.368,0,0,0,2.736,0V1.368A1.368,1.368,0,0,0,247.368,0Z" transform="translate(-246)" fill="#fff"/>
        </g>
      </g>
      <g id="Group_95" data-name="Group 95" transform="translate(16.322 4.642)">
        <g id="Group_94" data-name="Group 94">
          <path id="Path_25" data-name="Path 25" d="M125.346,40.624l-3.464-6a1.368,1.368,0,0,0-2.369,1.368l3.464,6a1.368,1.368,0,1,0,2.369-1.368Z" transform="translate(-119.329 -33.94)" fill="#fff"/>
        </g>
      </g>
      <g id="Group_97" data-name="Group 97" transform="translate(57.655 17.325)">
        <g id="Group_96" data-name="Group 96">
          <path id="Path_26" data-name="Path 26" d="M430.075,127.352a1.368,1.368,0,0,0-1.868-.5l-6,3.464a1.368,1.368,0,1,0,1.368,2.369l6-3.464A1.367,1.367,0,0,0,430.075,127.352Z" transform="translate(-421.522 -126.668)" fill="#fff"/>
        </g>
      </g>
      <g id="Group_99" data-name="Group 99" transform="translate(3.639 17.325)">
        <g id="Group_98" data-name="Group 98">
          <path id="Path_27" data-name="Path 27" d="M34.656,130.315l-6-3.464a1.368,1.368,0,0,0-1.368,2.369l6,3.464a1.368,1.368,0,0,0,1.368-2.369Z" transform="translate(-26.603 -126.667)" fill="#fff"/>
        </g>
      </g>
      <g id="Group_101" data-name="Group 101" transform="translate(47.508 4.642)">
        <g id="Group_100" data-name="Group 100">
          <path id="Path_28" data-name="Path 28" d="M352.855,34.123a1.368,1.368,0,0,0-1.868.5l-3.464,6a1.368,1.368,0,1,0,2.369,1.368l3.464-6A1.368,1.368,0,0,0,352.855,34.123Z" transform="translate(-347.338 -33.939)" fill="#fff"/>
        </g>
      </g>
      <g id="Group_103" data-name="Group 103" transform="translate(48.691 27.01)">
        <g id="Group_102" data-name="Group 102">
          <path id="Path_29" data-name="Path 29" d="M358.619,198.331l0-.009a1.387,1.387,0,1,0,0,.009Z" transform="translate(-355.985 -197.476)" fill="#fff"/>
        </g>
      </g>
      <g id="Group_105" data-name="Group 105" transform="translate(33.453 16.915)">
        <g id="Group_104" data-name="Group 104">
          <path id="Path_30" data-name="Path 30" d="M259.645,130.041a17.878,17.878,0,0,0-13.7-6.374,1.368,1.368,0,1,0,0,2.736,15.148,15.148,0,0,1,11.607,5.4,1.368,1.368,0,0,0,2.092-1.763Z" transform="translate(-244.578 -123.667)" fill="#fff"/>
        </g>
      </g>
    </g>
  </g>
</svg>
