<svg xmlns="http://www.w3.org/2000/svg" width="40.974" height="22.32" viewBox="0 0 40.974 22.32">
  <g id="Group_3703" data-name="Group 3703" transform="translate(-4295.18 -4572.12)">
    <path id="Path_31908" data-name="Path 31908" d="M-6.69,1.44h3.15l.84-5.37H1.02L.21,1.44H3.33l.84-5.37h3.9L8.1-7.38H4.71l.57-3.84h3.6l.03-3.39H5.82l.78-5.07H3.48l-.81,5.07H-1.05l.81-5.07H-3.39l-.78,5.07H-8.04v3.39h3.33l-.6,3.84H-8.82v3.45h3Zm4.53-8.82.6-3.84H2.16l-.6,3.84Z" transform="translate(4304 4593)" fill="#faa819"/>
    <path id="Path_31901" data-name="Path 31901" d="M3.765-10.62v-.06a5.416,5.416,0,0,0,2.55-4.62c0-3.57-3-5.58-6.75-5.58a6.762,6.762,0,0,0-6.48,3.87l3.87,2.04a2.6,2.6,0,0,1,2.49-1.56,2.033,2.033,0,0,1,2.13,2.07,1.888,1.888,0,0,1-2.13,1.98h-1.71v3.87h1.35c1.89,0,2.85,1.05,2.85,2.31A2.252,2.252,0,0,1-.5-4.05a2.883,2.883,0,0,1-3-2.13l-4.23,1.74A7.77,7.77,0,0,0-.165.3c4.11,0,7.11-2.31,7.11-5.94A5.309,5.309,0,0,0,3.765-10.62Z" transform="translate(4329.209 4593)" fill="#fff"/>
  </g>
</svg>
