<svg xmlns="http://www.w3.org/2000/svg" width="101.512" height="68.7" viewBox="0 0 101.512 68.7">
  <g id="Group_3738" data-name="Group 3738" transform="translate(-385.038 -5737.864)">
    <path id="Path_31925" data-name="Path 31925" d="M-16.279,3.5h7.665L-6.57-9.563H2.482L.511,3.5H8.1L10.147-9.563h9.49l.073-8.4H11.461L12.848-27.3h8.76l.073-8.249H14.162l1.9-12.337H8.468L6.5-35.551H-2.555L-.584-47.888H-8.249l-1.9,12.337h-9.417V-27.3h8.1l-1.46,9.344h-8.541v8.4h7.3ZM-5.256-17.958-3.8-27.3H5.256L3.8-17.958Z" transform="translate(406.5 5788.564)" fill="#faa819"/>
    <path id="Path_31922" data-name="Path 31922" d="M-2.25,0h16.3V-68.7h-13l-21.5,15.2,7.7,12.1,10.5-7.8Z" transform="translate(472.5 5806.564)" fill="#fff"/>
  </g>
</svg>
