<svg id="logo-grandem" xmlns="http://www.w3.org/2000/svg" width="65.73" height="16.013" viewBox="0 0 65.73 16.013" class="logo-color-var">
  <path id="Path_120" data-name="Path 120" d="M4.367,5.026A4.365,4.365,0,1,0,8.733,9.39,4.369,4.369,0,0,0,4.367,5.026Zm0,7.278A2.912,2.912,0,1,1,7.278,9.393,2.915,2.915,0,0,1,4.367,12.3Z" transform="translate(0 -2.594)" fill="#ffffff"/>
  <path id="Path_121" data-name="Path 121" d="M15.509,1.718a.971.971,0,1,0,.971.971A.971.971,0,0,0,15.509,1.718Z" transform="translate(-7.503 -0.887)" fill="#ffffff"/>
  <path id="Path_122" data-name="Path 122" d="M4.367,26.981a2.915,2.915,0,0,1-2.912-2.912H0a4.367,4.367,0,1,0,8.733,0H7.279a2.915,2.915,0,0,1-2.912,2.912Z" transform="translate(0 -12.422)" fill="#ffffff"/>
  <path id="Path_123" data-name="Path 123" d="M94.507,5.021a4.367,4.367,0,1,0,4.068,6.06h-1.66a2.9,2.9,0,0,1-5.176-.971h7.024a4.365,4.365,0,0,0,.062-.723,4.471,4.471,0,0,0-.062-.732,4.321,4.321,0,0,0-4.256-3.635ZM91.69,8.9c.015-.082.031-.164.051-.243a2.845,2.845,0,0,1,5.532,0c.02.079.038.162.051.243H91.691Z" transform="translate(-46.547 -2.591)" fill="#ffffff"/>
  <path id="Path_124" data-name="Path 124" d="M37.284,6.061a3.974,3.974,0,0,0-2.717-1.035,4.367,4.367,0,0,0,0,8.733,3.974,3.974,0,0,0,2.717-1.035v.789h1.455V5.263H37.284ZM34.567,12.3a2.912,2.912,0,1,1,2.91-2.912A2.915,2.915,0,0,1,34.567,12.3Z" transform="translate(-15.586 -2.594)" fill="#ffffff"/>
  <path id="Path_125" data-name="Path 125" d="M76.695,3.467a3.974,3.974,0,0,0-2.717-1.035,4.367,4.367,0,0,0,0,8.733,3.978,3.978,0,0,0,2.717-1.035v.789h1.455V0H76.695ZM73.978,9.708A2.912,2.912,0,1,1,76.887,6.8,2.915,2.915,0,0,1,73.978,9.708Z" transform="translate(-35.927)" fill="#ffffff"/>
  <path id="Path_126" data-name="Path 126" d="M23.3,6.063v-.8H21.849v8.248H23.3V8.665a2.188,2.188,0,0,1,2.184-2.184V5.026A2.587,2.587,0,0,0,23.3,6.063Z" transform="translate(-11.276 -2.594)" fill="#ffffff"/>
  <path id="Path_127" data-name="Path 127" d="M55.6,5.018A3.248,3.248,0,0,0,53.175,6.06v-.8H51.72V13.5h1.455V8.655a2.183,2.183,0,1,1,4.366,0V13.5H59V8.655a3.445,3.445,0,0,0-3.4-3.639l0,0Z" transform="translate(-26.693 -2.589)" fill="#ffffff"/>
  <path id="Path_128" data-name="Path 128" d="M119.748,5.021a3.022,3.022,0,0,0-2.669,1.534,3.024,3.024,0,0,0-2.669-1.534,2.663,2.663,0,0,0-2.184,1.033V5.26h-1.455v8.248h1.455V8.417a1.94,1.94,0,1,1,3.88,0v5.092h1.457V8.417h0a1.941,1.941,0,1,1,3.882,0v5.092H122.9V8.417a3.2,3.2,0,0,0-3.153-3.4h0Z" transform="translate(-57.17 -2.591)" fill="#ffffff"/>
</svg>
